<?xml version="1.0" standalone="no"?>
<!DOCTYPE svg PUBLIC "-//W3C//DTD SVG 20010904//EN"
 "http://www.w3.org/TR/2001/REC-SVG-20010904/DTD/svg10.dtd">
<svg version="1.0" xmlns="http://www.w3.org/2000/svg"
 width="479.000000pt" height="479.000000pt" viewBox="0 0 479.000000 479.000000"
 preserveAspectRatio="xMidYMid meet">
<metadata>
Created by potrace 1.14, written by Peter Selinger 2001-2017
</metadata>
<g transform="translate(0.000000,479.000000) scale(0.100000,-0.100000)"
fill="#000000" stroke="none">
<path d="M2295 4701 c-321 -187 -415 -242 -555 -322 -85 -49 -162 -94 -170
-99 -72 -45 -170 -100 -178 -100 -6 0 -12 -4 -14 -9 -1 -5 -21 -17 -43 -28
-22 -11 -103 -57 -180 -103 -77 -46 -180 -106 -230 -135 -264 -153 -525 -306
-582 -342 -12 -8 -16 -458 -14 -1800 l1 -513 42 -27 c24 -14 98 -58 166 -97
67 -39 135 -78 150 -87 15 -9 82 -48 150 -88 68 -39 176 -102 240 -140 258
-152 511 -300 582 -341 114 -65 232 -134 493 -289 131 -77 245 -141 253 -141
8 0 31 11 52 24 20 13 93 56 162 96 69 40 141 83 161 96 19 13 38 24 41 24 4
0 69 38 145 83 76 46 226 135 333 197 107 62 212 123 232 136 21 13 40 24 44
24 3 0 18 8 32 19 27 19 292 175 367 217 59 32 297 173 400 237 l90 55 0 1151
0 1151 -3 -1147 -3 -1148 -137 -81 c-75 -45 -285 -169 -467 -275 -488 -285
-722 -423 -1102 -647 -188 -111 -345 -202 -349 -202 -4 0 -104 58 -223 129
-119 70 -313 184 -431 253 -118 69 -330 192 -470 275 -140 82 -343 201 -450
263 -107 62 -261 152 -342 199 l-147 86 2 1148 2 1149 405 237 c223 130 572
333 775 451 204 117 484 281 624 362 158 93 260 147 270 143 9 -3 140 -80 291
-170 151 -89 509 -299 795 -466 628 -366 648 -378 802 -468 121 -71 168 -94
148 -74 -5 6 -37 25 -70 43 -33 18 -71 40 -83 48 -28 18 -59 37 -131 77 -29
17 -90 52 -134 79 -45 27 -122 72 -171 100 -48 28 -102 59 -120 69 -17 11
-105 62 -196 115 -91 52 -219 127 -285 166 -66 39 -129 76 -140 82 -39 21
-161 92 -233 135 -41 24 -97 58 -126 74 -72 41 -149 88 -161 98 -23 19 -186
107 -198 107 -6 0 -57 -27 -112 -59z"/>
<path d="M2204 4373 c-109 -63 -325 -187 -479 -276 -712 -409 -1141 -660
-1152 -675 -10 -12 -13 -229 -13 -1006 0 -545 3 -1000 6 -1011 5 -19 91 -71
944 -568 113 -66 264 -154 335 -197 72 -42 228 -134 347 -203 l217 -126 208
121 c114 66 233 135 263 153 181 104 1101 645 1255 737 l90 54 7 195 c3 108 3
571 0 1029 l-7 834 -80 47 c-44 25 -251 145 -460 266 -209 121 -570 331 -803
466 -232 136 -435 253 -450 261 -27 14 -33 11 -228 -101z m526 -321 c157 -91
371 -215 475 -277 175 -103 632 -367 768 -444 l57 -33 -2 -895 -3 -896 -215
-125 c-118 -68 -397 -231 -620 -362 -597 -350 -711 -416 -750 -435 l-36 -17
-279 162 c-259 149 -456 264 -790 460 -71 42 -226 132 -343 200 l-212 124 2
895 3 895 55 31 c102 59 783 451 1135 656 193 111 368 213 389 225 32 18 44
21 60 12 12 -6 149 -85 306 -176z"/>
<path d="M1845 3565 c-29 -28 -31 -42 -9 -73 20 -29 58 -48 114 -57 25 -4 65
-18 90 -30 45 -23 140 -114 140 -135 0 -6 -24 -34 -52 -63 -68 -68 -109 -151
-116 -234 -2 -35 -8 -63 -12 -63 -9 0 -957 227 -1000 240 -63 18 -60 28 -60
-188 0 -209 9 -272 51 -354 29 -57 110 -141 164 -169 28 -15 45 -31 45 -42 0
-38 54 -131 107 -183 75 -74 207 -133 295 -134 31 0 30 12 7 -175 -19 -148
-69 -290 -149 -421 l-19 -30 54 -29 54 -30 27 25 c49 46 123 161 153 239 34
89 57 202 67 329 l7 90 71 17 c39 10 76 20 83 22 8 3 4 -21 -12 -67 -91 -268
-65 -526 71 -712 48 -65 149 -148 227 -186 l62 -31 18 -93 c9 -52 17 -104 17
-116 0 -22 4 -23 57 -20 l57 3 17 108 c21 134 21 134 57 142 47 10 176 100
226 157 108 124 150 250 149 448 0 132 -7 174 -58 347 l-7 21 80 -20 79 -20 7
-93 c12 -178 69 -354 156 -479 77 -111 75 -110 143 -83 31 12 57 25 57 29 0 3
-16 30 -35 59 -74 113 -129 285 -140 436 -3 48 -8 98 -10 109 -4 19 2 22 70
33 170 28 310 142 345 281 10 39 18 49 56 69 65 35 157 138 185 208 22 53 24
76 27 281 2 133 0 222 -6 222 -14 0 -186 -39 -639 -146 -221 -52 -406 -94
-411 -94 -5 0 -12 29 -14 64 -7 85 -63 192 -129 248 -47 39 -48 41 -34 68 33
65 125 121 235 146 88 20 120 44 120 89 0 45 -29 65 -95 65 -143 0 -307 -90
-384 -209 l-35 -56 -70 1 -69 1 -23 39 c-78 129 -241 224 -387 224 -38 0 -53
-5 -72 -25z m663 -437 c23 -11 56 -36 72 -56 29 -35 57 -99 48 -108 -3 -2 -25
5 -49 15 -124 55 -316 42 -391 -26 -17 -15 -18 -14 -18 8 0 38 41 110 82 142
72 57 168 67 256 25z m-1113 -267 c110 -27 292 -71 405 -97 113 -26 207 -48
209 -50 1 -1 0 -26 -4 -53 l-7 -51 -260 0 c-232 0 -259 -2 -248 -15 19 -23 8
-28 -78 -28 -108 -1 -167 18 -218 68 -52 53 -74 116 -74 216 l0 77 38 -9 c20
-5 127 -31 237 -58z m2293 -29 c-6 -102 -26 -150 -87 -205 -50 -45 -93 -57
-203 -57 -80 0 -105 8 -78 25 6 3 10 9 10 13 0 4 -119 6 -264 4 l-264 -3 -6
23 c-3 13 -6 37 -6 54 l0 31 103 22 c56 12 251 57 432 101 182 43 338 79 349
79 17 1 18 -5 14 -87z m-1178 -9 c29 -16 67 -45 84 -66 28 -35 31 -46 31 -106
0 -59 -4 -72 -28 -105 -49 -64 -100 -90 -181 -94 -63 -3 -77 0 -126 25 -67 35
-110 93 -117 156 -7 61 1 90 40 133 73 84 199 108 297 57z m-449 -395 c11 -20
8 -26 -27 -56 -85 -75 -207 -111 -375 -112 -101 0 -169 21 -219 69 -34 32 -53
71 -34 71 3 0 87 9 187 20 227 24 251 26 364 28 86 2 93 0 104 -20z m1149 -9
c107 -11 197 -23 199 -25 8 -8 -32 -56 -70 -84 -56 -40 -132 -54 -259 -47
-129 7 -191 25 -272 80 -67 45 -82 72 -52 95 24 18 177 12 454 -19z m-630
-161 c0 -5 -81 -8 -180 -8 l-180 0 16 26 c15 21 23 25 48 20 77 -15 163 -16
211 -3 48 14 51 13 67 -7 10 -11 18 -24 18 -28z m111 -235 c5 -15 19 -58 29
-95 l19 -67 -335 -3 c-284 -3 -334 -1 -334 11 0 8 9 50 21 92 l21 78 46 4 c26
2 154 4 285 5 l237 2 11 -27z m39 -418 c-18 -48 -42 -90 -81 -142 l-40 -53
-207 0 -208 0 -36 38 c-20 20 -48 62 -62 92 -46 98 -73 90 309 90 l335 0 -10
-25z"/>
</g>
</svg>
